<svg width="194" height="34" viewBox="0 0 194 34" fill="none" xmlns="http://www.w3.org/2000/svg">
<path d="M117.232 33.8985C113.51 33.8985 110.069 32.5638 107.548 30.1399C105.027 27.7161 103.634 24.4143 103.634 20.8395C103.634 17.3021 105.024 14.0117 107.546 11.5732C110.117 9.14757 113.585 7.78352 117.203 7.77591C120.82 7.76831 124.295 9.11776 126.876 11.5326C129.424 13.9711 130.83 17.2712 130.83 20.8363C130.83 24.4013 129.44 27.7144 126.907 30.1367C124.374 32.5589 120.953 33.8985 117.232 33.8985ZM117.232 12.2576C114.844 12.2576 112.647 13.1176 111.072 14.6783C109.496 16.2389 108.611 18.4368 108.611 20.8395C108.611 23.2422 109.485 25.4288 111.072 27.0008C112.658 28.5728 114.836 29.4198 117.232 29.4198C122.207 29.4198 125.819 25.8108 125.819 20.8395C125.819 15.8682 122.207 12.2576 117.232 12.2576Z" fill="#0F3A56"/>
<path d="M151.305 33.8985C147.582 33.8985 144.142 32.5638 141.62 30.1399C139.097 27.7161 137.707 24.4143 137.707 20.8395C137.707 17.3021 139.095 14.0117 141.618 11.5732C144.188 9.14757 147.657 7.78352 151.274 7.77591C154.891 7.76831 158.366 9.11776 160.948 11.5326C163.498 13.9711 164.901 17.2712 164.901 20.8363C164.901 24.4013 163.511 27.7144 160.989 30.1367C158.466 32.5589 155.026 33.8985 151.305 33.8985ZM151.305 12.2576C148.907 12.2576 146.721 13.1176 145.143 14.6783C143.565 16.2389 142.684 18.4368 142.684 20.8395C142.684 23.2422 143.557 25.4288 145.143 27.0008C146.729 28.5728 148.907 29.4198 151.305 29.4198C156.28 29.4198 159.89 25.8108 159.89 20.8395C159.89 15.8682 156.28 12.2576 151.305 12.2576Z" fill="#0F3A56"/>
<path d="M108.205 5.68016C107.89 5.67995 107.583 5.58487 107.328 5.40847C107.072 5.23206 106.882 4.98335 106.784 4.69777C106.685 4.41219 106.684 4.10432 106.78 3.81805C106.876 3.53177 107.065 3.2817 107.319 3.10349C110.208 1.08702 113.696 0 117.277 0C120.858 0 124.346 1.08702 127.235 3.10349C127.556 3.32726 127.77 3.66321 127.83 4.03744C127.891 4.41166 127.793 4.79352 127.558 5.09899C127.324 5.40446 126.971 5.60852 126.579 5.66629C126.186 5.72407 125.785 5.63081 125.465 5.40705C123.089 3.75005 120.222 2.85688 117.279 2.85688C114.335 2.85688 111.468 3.75005 109.092 5.40705C108.835 5.58559 108.524 5.68125 108.205 5.68016Z" fill="#5CBDFA"/>
<path d="M142.212 5.67994C141.896 5.68044 141.589 5.5857 141.333 5.4093C141.077 5.2329 140.886 4.98389 140.788 4.69791C140.69 4.41192 140.689 4.10364 140.786 3.81721C140.883 3.53077 141.072 3.28087 141.327 3.10328C144.216 1.08695 147.704 0 151.284 0C154.865 0 158.353 1.08695 161.242 3.10328C161.401 3.21418 161.535 3.3538 161.637 3.51414C161.739 3.67449 161.807 3.85243 161.837 4.0378C161.867 4.22318 161.858 4.41235 161.811 4.59453C161.764 4.77671 161.681 4.94833 161.564 5.09958C161.448 5.25083 161.301 5.37877 161.133 5.47606C160.965 5.57336 160.778 5.63812 160.584 5.66666C160.389 5.69519 160.191 5.68693 160 5.64235C159.809 5.59776 159.629 5.51774 159.47 5.40683C157.094 3.75008 154.227 2.85705 151.284 2.85705C148.34 2.85705 145.473 3.75008 143.097 5.40683C142.84 5.58525 142.53 5.68091 142.212 5.67994Z" fill="#5CBDFA"/>
<path d="M19.4801 33.5039V18.9461L12.1396 27.4011L4.83676 18.9509V33.5039H0V7.78101H1.22454L12.1413 20.5181L23.094 7.78101H24.3168V33.5039H19.4801Z" fill="#0F3A56"/>
<path d="M39.7758 8.177H34.835V33.5032H39.7758V8.177Z" fill="#0F3A56"/>
<path d="M64.3067 33.5036L59.1425 24.1853H55.2369V33.5036H50.291V8.1709H59.1749C62.0623 8.1709 64.4704 8.90245 66.1418 10.2843C67.8473 11.6953 68.7512 13.7453 68.7512 16.2098C68.7794 17.9694 68.1738 19.685 67.0355 21.0705C66.223 22.0283 65.1837 22.7888 64.0031 23.2895L69.8615 33.5003L64.3067 33.5036ZM59.3489 20.0382C62.1851 20.0382 63.8104 18.645 63.8104 16.2163C63.8104 13.7876 62.0896 12.3976 59.0726 12.3976H55.2352V20.0382H59.3489Z" fill="#0F3A56"/>
<path d="M91.9354 33.5036L86.7694 24.1853H82.8639V33.5036H77.918V8.1709H86.8001C89.6875 8.1709 92.0974 8.90245 93.767 10.2843C95.4725 11.6953 96.3764 13.7453 96.3764 16.2098C96.4022 17.9686 95.7942 19.6826 94.6539 21.0656C93.8438 22.0249 92.8062 22.7872 91.6267 23.2895L97.485 33.5003L91.9354 33.5036ZM86.9741 20.0382C89.8086 20.0382 91.4356 18.645 91.4356 16.2163C91.4356 13.7876 89.708 12.3976 86.6961 12.3976H82.8588V20.0382H86.9741Z" fill="#0F3A56"/>
<path d="M187.523 33.5036L182.357 24.1853H178.452V33.5036H173.506V8.1709H182.388C185.276 8.1709 187.685 8.90245 189.357 10.2843C191.062 11.6953 191.964 13.7453 191.964 16.2098C191.99 17.9686 191.382 19.6826 190.242 21.0656C189.433 22.0243 188.397 22.7865 187.22 23.2895L193.078 33.5003L187.523 33.5036ZM182.567 20.0382C185.402 20.0382 187.029 18.645 187.029 16.2163C187.029 13.7876 185.301 12.3976 182.289 12.3976H178.452V20.0382H182.567Z" fill="#0F3A56"/>
</svg>
