<svg width="38" height="38" viewBox="0 0 38 38" fill="none" xmlns="http://www.w3.org/2000/svg">
<path d="M25.7091 14.0234C25.7091 15.883 24.9704 17.6664 23.6554 18.9814C22.3405 20.2963 20.5571 21.035 18.6974 21.035C16.8378 21.035 15.0544 20.2963 13.7395 18.9814C12.4245 17.6664 11.6858 15.883 11.6858 14.0234C11.6858 12.1638 12.4245 10.3803 13.7395 9.06539C15.0544 7.75045 16.8378 7.01172 18.6974 7.01172C20.5571 7.01172 22.3405 7.75045 23.6554 9.06539C24.9704 10.3803 25.7091 12.1638 25.7091 14.0234Z" fill="#0F3A56"/>
<path fill-rule="evenodd" clip-rule="evenodd" d="M0 18.6978C0 13.7388 1.96994 8.98295 5.47645 5.47645C8.98295 1.96994 13.7388 0 18.6978 0C23.6567 0 28.4126 1.96994 31.9191 5.47645C35.4256 8.98295 37.3955 13.7388 37.3955 18.6978C37.3955 23.6567 35.4256 28.4126 31.9191 31.9191C28.4126 35.4256 23.6567 37.3955 18.6978 37.3955C13.7388 37.3955 8.98295 35.4256 5.47645 31.9191C1.96994 28.4126 0 23.6567 0 18.6978ZM18.6978 2.33722C15.6168 2.33738 12.5985 3.20751 9.99022 4.84746C7.38196 6.4874 5.28979 8.83051 3.95449 11.6071C2.61919 14.3837 2.09505 17.4809 2.44239 20.5422C2.78973 23.6035 3.99443 26.5046 5.91784 28.9114C7.57726 26.2376 11.2303 23.3722 18.6978 23.3722C26.1652 23.3722 29.8159 26.2353 31.4777 28.9114C33.4011 26.5046 34.6058 23.6035 34.9531 20.5422C35.3005 17.4809 34.7763 14.3837 33.441 11.6071C32.1057 8.83051 30.0135 6.4874 27.4053 4.84746C24.797 3.20751 21.7787 2.33738 18.6978 2.33722Z" fill="#0F3A56"/>
</svg>
