<svg width="170" height="171" viewBox="0 0 170 171" fill="none" xmlns="http://www.w3.org/2000/svg">
<g filter="url(#filter0_d_274_394)">
<circle cx="85" cy="83.7048" r="69" fill="#5CBDFA"/>
</g>
<path d="M72.6197 79.578C72.9845 79.578 73.3344 79.7229 73.5924 79.9809C73.8504 80.2389 73.9953 80.5888 73.9953 80.9536V83.7047C73.9953 86.6233 75.1547 89.4224 77.2185 91.4862C79.2822 93.5499 82.0813 94.7093 84.9999 94.7093C87.9185 94.7093 90.7176 93.5499 92.7813 91.4862C94.8451 89.4224 96.0045 86.6233 96.0045 83.7047V80.9536C96.0045 80.5888 96.1494 80.2389 96.4074 79.9809C96.6654 79.7229 97.0153 79.578 97.3801 79.578C97.7449 79.578 98.0948 79.7229 98.3528 79.9809C98.6107 80.2389 98.7557 80.5888 98.7557 80.9536V83.7047C98.7557 87.1149 97.4891 90.4034 95.2015 92.9325C92.9139 95.4615 89.7685 97.0507 86.3755 97.3917V102.963H94.6289C94.9938 102.963 95.3436 103.108 95.6016 103.366C95.8596 103.624 96.0045 103.974 96.0045 104.338C96.0045 104.703 95.8596 105.053 95.6016 105.311C95.3436 105.569 94.9938 105.714 94.6289 105.714H75.3709C75.006 105.714 74.6562 105.569 74.3982 105.311C74.1402 105.053 73.9953 104.703 73.9953 104.338C73.9953 103.974 74.1402 103.624 74.3982 103.366C74.6562 103.108 75.006 102.963 75.3709 102.963H83.6243V97.3917C80.2313 97.0507 77.0859 95.4615 74.7983 92.9325C72.5107 90.4034 71.2441 87.1149 71.2441 83.7047V80.9536C71.2441 80.5888 71.3891 80.2389 71.647 79.9809C71.905 79.7229 72.2549 79.578 72.6197 79.578Z" fill="#0F3A56"/>
<path d="M90.5019 83.7048C90.5019 85.1641 89.9221 86.5636 88.8903 87.5955C87.8584 88.6274 86.4588 89.2071 84.9995 89.2071C83.5402 89.2071 82.1407 88.6274 81.1088 87.5955C80.077 86.5636 79.4972 85.1641 79.4972 83.7048V69.949C79.4972 68.4897 80.077 67.0902 81.1088 66.0583C82.1407 65.0264 83.5402 64.4467 84.9995 64.4467C86.4588 64.4467 87.8584 65.0264 88.8903 66.0583C89.9221 67.0902 90.5019 68.4897 90.5019 69.949V83.7048ZM84.9995 61.6956C82.8106 61.6956 80.7113 62.5651 79.1635 64.1129C77.6157 65.6608 76.7461 67.7601 76.7461 69.949V83.7048C76.7461 85.8937 77.6157 87.993 79.1635 89.5408C80.7113 91.0887 82.8106 91.9582 84.9995 91.9582C87.1885 91.9582 89.2878 91.0887 90.8356 89.5408C92.3834 87.993 93.253 85.8937 93.253 83.7048V69.949C93.253 67.7601 92.3834 65.6608 90.8356 64.1129C89.2878 62.5651 87.1885 61.6956 84.9995 61.6956Z" fill="#0F3A56"/>
<defs>
<filter id="filter0_d_274_394" x="0" y="0.704834" width="170" height="170" filterUnits="userSpaceOnUse" color-interpolation-filters="sRGB">
<feFlood flood-opacity="0" result="BackgroundImageFix"/>
<feColorMatrix in="SourceAlpha" type="matrix" values="0 0 0 0 0 0 0 0 0 0 0 0 0 0 0 0 0 0 127 0" result="hardAlpha"/>
<feOffset dy="2"/>
<feGaussianBlur stdDeviation="8"/>
<feColorMatrix type="matrix" values="0 0 0 0 0.584314 0 0 0 0 0.678431 0 0 0 0 0.996078 0 0 0 0.5 0"/>
<feBlend mode="normal" in2="BackgroundImageFix" result="effect1_dropShadow_274_394"/>
<feBlend mode="normal" in="SourceGraphic" in2="effect1_dropShadow_274_394" result="shape"/>
</filter>
</defs>
</svg>
