<svg width="49" height="48" viewBox="0 0 49 48" fill="none" xmlns="http://www.w3.org/2000/svg">
<path fill-rule="evenodd" clip-rule="evenodd" d="M4.29678 29.8616C2.03321 29.8616 0.194824 31.7017 0.194824 33.9675C0.194824 36.2334 2.03321 38.0929 4.29678 38.0929C4.73932 38.0929 5.17473 38.019 5.59317 37.8798C12.2737 48.132 25.5294 50.4977 35.2355 44.949C35.519 44.7868 35.6297 44.3809 35.4676 44.0969C35.3055 43.813 34.9 43.7022 34.6162 43.8645C25.4924 49.0803 13.0365 46.9181 6.69605 37.2988C7.72645 36.5496 8.39874 35.3354 8.39874 33.9675C8.39874 31.7017 6.56055 29.8616 4.29678 29.8616Z" fill="url(#paint0_linear_253_57)"/>
<path fill-rule="evenodd" clip-rule="evenodd" d="M35.2356 6.75583C34.7182 6.82164 34.5625 7.67269 35.0228 7.91787C42.3281 12.3763 46.4072 21.1005 44.6196 29.9197C44.4059 29.8834 44.1835 29.8617 43.9618 29.8617C41.6982 29.8617 39.8599 31.7018 39.8599 33.9676C39.8599 36.2335 41.6982 38.0929 43.9618 38.0929C46.2254 38.0929 48.0638 36.2335 48.0638 33.9676C48.0638 32.3665 47.1461 30.9787 45.8 30.3071C47.7623 20.9275 43.4439 11.6023 35.6613 6.8527C35.558 6.78695 35.4351 6.75276 35.3129 6.75586C35.2868 6.75423 35.2616 6.7542 35.2356 6.75583Z" fill="url(#paint1_linear_253_57)"/>
<path fill-rule="evenodd" clip-rule="evenodd" d="M24.1293 0.13208C21.9467 0.13208 20.1723 1.85157 20.0468 4.00563C10.6922 5.73802 3.87607 13.1474 2.32333 21.9402C2.30552 22.0219 2.3044 22.1063 2.32003 22.1884C2.33566 22.2705 2.36772 22.3486 2.41429 22.418C2.46085 22.4874 2.52096 22.5467 2.59099 22.5922C2.66102 22.6377 2.73953 22.6686 2.82179 22.683C2.90405 22.6974 2.98837 22.6949 3.06968 22.6759C3.15098 22.6568 3.22758 22.6214 3.29489 22.572C3.36219 22.5225 3.4188 22.4599 3.4613 22.3879C3.50381 22.316 3.53134 22.2361 3.54223 22.1533C5.00072 13.8945 11.369 6.92617 20.1434 5.24519C20.5931 7.02736 22.2119 8.34403 24.1293 8.34403C26.3929 8.34403 28.2313 6.50393 28.2313 4.23805C28.2313 1.97219 26.3929 0.13208 24.1293 0.13208Z" fill="url(#paint2_linear_253_57)"/>
<defs>
<linearGradient id="paint0_linear_253_57" x1="0.194824" y1="29.8616" x2="35.5427" y2="29.8616" gradientUnits="userSpaceOnUse">
<stop stop-color="#00DDFF"/>
<stop offset="1" stop-color="#FF00D4"/>
</linearGradient>
<linearGradient id="paint1_linear_253_57" x1="34.7498" y1="6.75464" x2="48.0638" y2="6.75464" gradientUnits="userSpaceOnUse">
<stop stop-color="#00DDFF"/>
<stop offset="1" stop-color="#FF00D4"/>
</linearGradient>
<linearGradient id="paint2_linear_253_57" x1="2.30908" y1="0.13208" x2="28.2313" y2="0.13208" gradientUnits="userSpaceOnUse">
<stop stop-color="#00DDFF"/>
<stop offset="1" stop-color="#FF00D4"/>
</linearGradient>
</defs>
</svg>
